<svg xmlns="http://www.w3.org/2000/svg" width="50" height="50" viewBox="0 0 50 50"><defs><style>.a{fill:#8c3562}</style></defs><g transform="translate(0 47.917)"><path class="a" d="M48.958,490.667H1.042a1.042,1.042,0,1,0,0,2.083H48.958a1.042,1.042,0,1,0,0-2.083Z" transform="translate(0 -490.667)"></path></g><g transform="translate(2.083 35.417)"><path class="a" d="M28.625,362.667h-6.25a1.042,1.042,0,0,0-1.042,1.042v12.5a1.042,1.042,0,0,0,1.042,1.042h6.25a1.042,1.042,0,0,0,1.042-1.042v-12.5A1.042,1.042,0,0,0,28.625,362.667Zm-1.042,12.5H23.416V364.75h4.167v10.417Z" transform="translate(-21.333 -362.667)"></path></g><g transform="translate(14.583 25)"><path class="a" d="M156.625,256h-6.25a1.042,1.042,0,0,0-1.042,1.042v22.917A1.042,1.042,0,0,0,150.375,281h6.25a1.042,1.042,0,0,0,1.042-1.042V257.042A1.042,1.042,0,0,0,156.625,256Zm-1.042,22.917h-4.167V258.083h4.167Z" transform="translate(-149.333 -256)"></path></g><g transform="translate(27.083 29.167)"><path class="a" d="M284.625,298.667h-6.25a1.042,1.042,0,0,0-1.042,1.042v18.75a1.042,1.042,0,0,0,1.042,1.042h6.25a1.042,1.042,0,0,0,1.042-1.042v-18.75A1.042,1.042,0,0,0,284.625,298.667Zm-1.042,18.75h-4.167V300.75h4.167Z" transform="translate(-277.333 -298.667)"></path></g><g transform="translate(39.583 16.667)"><path class="a" d="M412.625,170.667h-6.25a1.042,1.042,0,0,0-1.042,1.042v31.25A1.042,1.042,0,0,0,406.375,204h6.25a1.042,1.042,0,0,0,1.042-1.042v-31.25A1.042,1.042,0,0,0,412.625,170.667Zm-1.042,31.25h-4.167V172.75h4.167Z" transform="translate(-405.333 -170.667)"></path></g><g transform="translate(2.083 18.75)"><path class="a" d="M25.5,192a4.167,4.167,0,1,0,4.167,4.167A4.171,4.171,0,0,0,25.5,192Zm0,6.25a2.083,2.083,0,1,1,2.083-2.083A2.085,2.085,0,0,1,25.5,198.25Z" transform="translate(-21.333 -192)"></path></g><g transform="translate(14.583 8.333)"><path class="a" d="M153.5,85.333a4.167,4.167,0,1,0,4.167,4.167A4.171,4.171,0,0,0,153.5,85.333Zm0,6.25a2.083,2.083,0,1,1,2.083-2.083A2.085,2.085,0,0,1,153.5,91.583Z" transform="translate(-149.333 -85.333)"></path></g><g transform="translate(27.083 12.5)"><path class="a" d="M281.5,128a4.167,4.167,0,1,0,4.167,4.167A4.171,4.171,0,0,0,281.5,128Zm0,6.25a2.083,2.083,0,1,1,2.083-2.083A2.085,2.085,0,0,1,281.5,134.25Z" transform="translate(-277.333 -128)"></path></g><g transform="translate(39.583)"><path class="a" d="M409.5,0a4.167,4.167,0,1,0,4.167,4.167A4.171,4.171,0,0,0,409.5,0Zm0,6.25a2.083,2.083,0,1,1,2.083-2.083A2.085,2.085,0,0,1,409.5,6.25Z" transform="translate(-405.333)"></path></g><g transform="translate(32.418 5.333)"><path class="a" d="M341.824,54.913a1.043,1.043,0,0,0-1.473,0L332.268,63a1.042,1.042,0,0,0,1.473,1.473l8.083-8.083A1.042,1.042,0,0,0,341.824,54.913Z" transform="translate(-331.963 -54.608)"></path></g><g transform="translate(20.714 12.312)"><path class="a" d="M220.126,128.028l-6.692-1.908a1.042,1.042,0,0,0-.571,2l6.692,1.908a1.042,1.042,0,1,0,.571-2Z" transform="translate(-212.108 -126.078)"></path></g><g transform="translate(7.415 13.406)"><path class="a" d="M85.644,137.666a1.042,1.042,0,0,0-1.462-.167l-7.854,6.262a1.042,1.042,0,0,0,.65,1.856,1.052,1.052,0,0,0,.648-.225l7.854-6.263A1.041,1.041,0,0,0,85.644,137.666Z" transform="translate(-75.935 -137.273)"></path></g></svg>