<svg xmlns="http://www.w3.org/2000/svg" width="41.211" height="50" viewBox="0 0 41.211 50"><defs><style>.a{fill:#8c3562}</style></defs><path class="a" d="M0,0V50H41.211V0ZM38.281,47.07H2.93V2.93H38.281Zm0,0"></path><path class="a" d="M71.894,93.964a14.752,14.752,0,0,0,2.852-4,14.775,14.775,0,0,0,13.281,8.316h1.465V96.816a14.77,14.77,0,0,0-8.723-13.47,11.821,11.821,0,0,0,5.794-10.162V65.859H83.073L80.144,60H69.349l-2.93,5.859H62.93v7.324a11.822,11.822,0,0,0,5.794,10.163A14.769,14.769,0,0,0,60,96.816v1.465h1.465a14.652,14.652,0,0,0,10.429-4.317Zm14.565,1.283A11.842,11.842,0,0,1,76.315,85.1,11.842,11.842,0,0,1,86.459,95.247Zm-15.3-32.318h7.174l1.465,2.93h-10.1Zm-5.3,10.254V68.789h9.5a17.731,17.731,0,0,0-7.345,10.194A8.849,8.849,0,0,1,65.86,73.183Zm4.706,7.84A14.711,14.711,0,0,1,83.633,68.861v4.322a8.884,8.884,0,0,1-13.067,7.84Zm2.612,4.08A11.842,11.842,0,0,1,63.034,95.247,11.842,11.842,0,0,1,73.178,85.1Zm0,0" transform="translate(-54.141 -54.14)"></path></svg>