<svg xmlns="http://www.w3.org/2000/svg" xmlns:xlink="http://www.w3.org/1999/xlink" width="403.813" height="412.041" viewBox="0 0 403.813 412.041"><defs><style>.a{fill:#acafe0;}.b{fill:#c7784f;}.c{fill:#8c3562;}.d{fill:url(#a);}.e{fill:#ebdbcd;}.f{fill:#ed1f26;}.g{fill:#bfbfea;}.h{fill:#fff;}.i{fill:#ddddfc;}.j{fill:#e8e8f7;}.k{fill:#007e65;}.l{fill:#16b266;}</style><linearGradient id="a" x1="1.116" y1="0.888" x2="0.5" y2="1" gradientUnits="objectBoundingBox"><stop offset="0" stop-color="#422042"></stop><stop offset="1" stop-color="#8c3562"></stop></linearGradient></defs><g transform="translate(0)"><path class="a" d="M1150.9,962.2h31.522v195.871c0,9.445-7.046,17.121-15.761,17.121h0c-8.694,0-15.761-7.654-15.761-17.121h0V962.2Z" transform="translate(-913.784 -763.961)"></path><path class="b" d="M564,212.4h0a69.208,69.208,0,0,1,69.2,69.2h0v71.924A13.369,13.369,0,0,1,619.838,366.9H508.171A13.369,13.369,0,0,1,494.8,353.528V281.6A69.208,69.208,0,0,1,564,212.4Z" transform="translate(-392.858 -168.64)"></path><path class="c" d="M994.182,212.4H830.7a69.208,69.208,0,0,1,69.2,69.2h0v62.323h0v9.6A13.369,13.369,0,0,1,886.533,366.9h163.462a13.369,13.369,0,0,0,13.371-13.371V281.6A69.23,69.23,0,0,0,994.182,212.4Z" transform="translate(-659.553 -168.64)"></path><path class="d" d="M605.926,271.4h0a58.327,58.327,0,0,1,58.326,58.326h0v60.592a11.272,11.272,0,0,1-11.27,11.27H558.87a11.272,11.272,0,0,1-11.27-11.27V329.706A58.335,58.335,0,0,1,605.926,271.4Z" transform="translate(-434.78 -215.484)"></path><circle class="e" cx="17.224" cy="17.224" r="17.224" transform="translate(267.814 86.572)"></circle><path class="f" d="M1384.448,0H1359.6a6.208,6.208,0,0,0-6.2,6.2v97.616a6.208,6.208,0,0,0,6.2,6.2h0a6.208,6.208,0,0,0,6.2-6.2V21.674a1.7,1.7,0,0,1,1.689-1.689h16.956a6.168,6.168,0,0,0,6.2-6.078V6.2A6.181,6.181,0,0,0,1384.448,0Z" transform="translate(-1074.563)"></path><path class="b" d="M5.892,903.3h220.7a5.891,5.891,0,0,1,5.892,5.892v.35a5.891,5.891,0,0,1-5.892,5.892H5.892A5.891,5.891,0,0,1,0,909.543v-.35A5.891,5.891,0,0,1,5.892,903.3Z" transform="translate(0 -717.196)"></path><path class="g" d="M277.169,550.953a4.658,4.658,0,0,0-6.078,0L204.4,606.518a6.107,6.107,0,0,0,4.7,2.225H339.039a6.174,6.174,0,0,0,4.7-2.225Z" transform="translate(-162.288 -436.546)"></path><path class="h" d="M876.95,392.53h0l-.35-.33h0Z" transform="translate(-695.997 -311.396)"></path><path class="h" d="M272.835,439.72a5.23,5.23,0,0,0,6.078,0l66.135-51.878c-.124-.124-.227-.247-.35-.35h0a5.109,5.109,0,0,0-1.01-.618c.165,0,.309.185.474.268a6.136,6.136,0,0,0-3.111-.845H210.924a6.26,6.26,0,0,0-4.224,1.545Z" transform="translate(-164.114 -306.71)"></path><path class="i" d="M253.7,436.818,198.831,393.8c-.165.165-.371.309-.515.474h0a6.558,6.558,0,0,0-1.525,4.388v79.506a6.957,6.957,0,0,0,1.648,4.512Z" transform="translate(-156.245 -312.667)"></path><path class="j" d="M875.806,829l-.206.144Z" transform="translate(-695.203 -658.204)"></path><path class="j" d="M872.21,829.7a6.545,6.545,0,0,1-1.01.659A5.309,5.309,0,0,0,872.21,829.7Z" transform="translate(-691.709 -658.759)"></path><path class="i" d="M667.262,393.8,612.5,436.757l55.359,45.82a8.189,8.189,0,0,1-.865.824,6.865,6.865,0,0,0,2.493-5.336V398.642A6.4,6.4,0,0,0,667.262,393.8Z" transform="translate(-486.309 -312.667)"></path><path class="j" d="M878.715,394.395a2.924,2.924,0,0,0-.515-.495h0A3.965,3.965,0,0,1,878.715,394.395Z" transform="translate(-697.267 -312.746)"></path><path class="k" d="M1246.882,1494.31a114.533,114.533,0,0,1,9.786-21.674c3.647-6.077,7.026-10.8,9.7-14.731s4.842-7.17,6.552-9.766,3.091-4.429,4.512-4.615c1.422-.206,3.276,1.216,5.068,4.553a32.744,32.744,0,0,1,3.07,14.937,85.212,85.212,0,0,1-2.884,20.273c-1.607,6.7-3.523,13.68-5.934,20.994a215.807,215.807,0,0,1-7.85,20.273c-2.72,6.078-5.625,11.908-8.117,16.235l-6.078,10.8c-1.566,2.74-2.76,4.553-3.791,4.7s-3.152-1.216-4.986-4.45a38.014,38.014,0,0,1-4.059-14.2,95.262,95.262,0,0,1,0-19.985A108.913,108.913,0,0,1,1246.882,1494.31Z" transform="translate(-985.599 -1146.104)"></path><path class="l" d="M1023.735,1340.457c-3.894-8.942-8.55-18.254-12.176-27.773a87.592,87.592,0,0,1-6.078-27.5,43.5,43.5,0,0,1,3.276-19.408c2.019-4.326,4.244-6.078,5.583-5.913s2.452,2.74,3.956,6.469a140.669,140.669,0,0,0,6.531,14.36,219.621,219.621,0,0,0,11.867,19.614,190.372,190.372,0,0,1,15.658,27.463,113.081,113.081,0,0,1,8.859,32.449,104.7,104.7,0,0,1-.289,27.34c-2.287,15.452-7.273,24.1-9.189,23.961-2.658-.165-5.624-9.271-9.91-22.478A480.864,480.864,0,0,0,1023.735,1340.457Z" transform="translate(-798.259 -1000.286)"></path><path class="l" d="M906.5,1633.758c-1.071-.906-2.019-1.9-3.132-2.761a39.743,39.743,0,0,0-3.152-2.555c-.536-.391-1.051-.783-1.566-1.215s-1.071-.7-1.586-1.092L895.479,1625l-1.834-1.154c-2.6-1.587-5.789-3.338-8.921-5.625a34.408,34.408,0,0,1-8.447-8.3,20.858,20.858,0,0,1-3.77-16.482c.968-3.832,2.864-5.46,4.224-5.439s2.946,1.587,5.109,3.317a18.524,18.524,0,0,0,8.014,4.059c2.926.618,6.778.659,14.2,2.287.907.206,1.875.474,2.884.762,1.01.309,2.019.721,3.132,1.112s2.019.783,3.173,1.278l3.111,1.566a50.9,50.9,0,0,1,6.078,3.708,66.949,66.949,0,0,1,5.645,4.594,55.733,55.733,0,0,1,14.628,22.684,50.213,50.213,0,0,1,2.472,21.447,40.292,40.292,0,0,1-1.669,8.117,36.269,36.269,0,0,1-2.555,5.707c-1.916,2.988-3.523,4.347-4.532,4.224-2.7-.35-5.315-6.964-10.137-14.669A114.674,114.674,0,0,0,906.5,1633.758Z" transform="translate(-692.439 -1260.828)"></path></g></svg>