<svg xmlns="http://www.w3.org/2000/svg" width="199.92" height="79.439" viewBox="0 0 199.92 79.439"><defs><style>.a{fill:#422042;}.b{fill:#d5d5ed;}.c{fill:#fff;}.d{fill:#e8e8f7;}.e{fill:#ff5856;}.f{fill:#b46990;}.g{fill:#110580;}</style></defs><g transform="translate(14 -128.502)"><g transform="translate(-14 128.502)"><path class="a" d="M931.093,1627.438a.787.787,0,0,1-.327-.146c-.958-.721-1.9-1.442-2.828-2.164-1.859-1.363-3.606-2.58-5.319-3.707a.832.832,0,0,1,.789-1.465.76.76,0,0,1,.124.079c1.758,1.138,3.527,2.366,5.409,3.764.958.721,1.9,1.442,2.851,2.164a.836.836,0,0,1,.1,1.172.816.816,0,0,1-.823.271Zm-46.369-13.263a.84.84,0,0,1-.62-1.014.857.857,0,0,1,.507-.586,33.672,33.672,0,0,1,10.108-1.983.834.834,0,1,1,.068,1.667,31.524,31.524,0,0,0-9.612,1.882.8.8,0,0,1-.428.034Zm29.365,2.457a.533.533,0,0,1-.169-.068,49.584,49.584,0,0,0-9.308-3.268.829.829,0,0,1-.62-.992v-.011a.823.823,0,0,1,.98-.62h0a50.735,50.735,0,0,1,9.657,3.414.825.825,0,0,1,.417,1.093.835.835,0,0,1-.947.473Z" transform="translate(-768.685 -1573.903)"></path><g transform="translate(0)"><path class="b" d="M56.807,1610.5a2.952,2.952,0,0,0-3.865-.676L5.3,1637.2a3.91,3.91,0,0,0,2.7,1.9l81.1,14.232a3.908,3.908,0,0,0,3.189-.89Z" transform="translate(-4.704 -1573.955)"></path><path class="c" d="M130.085,1399.526a3.375,3.375,0,0,0,3.809.676l46.955-25.117c-.068-.079-.113-.169-.18-.248h0l-.045-.068a.246.246,0,0,1-.056-.045,4.043,4.043,0,0,0-.575-.5c.09.068.169.146.259.225a3.931,3.931,0,0,0-1.837-.879l-81.109-14.22a3.9,3.9,0,0,0-2.806.586Z" transform="translate(-83.853 -1352.054)"></path><path class="d" d="M40.171,1397.736,10.648,1364.9c-.124.068-.248.158-.372.237h0a4.162,4.162,0,0,0-1.5,2.524l-8.7,49.625a4.454,4.454,0,0,0,.53,2.986Z" transform="translate(-0.012 -1357.024)"></path><path class="d" d="M554.121,1499.4,515.2,1520.213l29.534,34.672a5.671,5.671,0,0,1-.631.428,4.306,4.306,0,0,0,2.163-3.054l8.665-49.625A4.074,4.074,0,0,0,554.121,1499.4Z" transform="translate(-457.147 -1476.368)"></path><circle class="e" cx="8.034" cy="8.034" r="8.034" transform="translate(22.603 0)"></circle></g><path class="f" d="M1283.584,1725.5c-.248-.034-7.82,5.161-7.82,5.161l17.669,16.125-21.32-12.756-8.113,8.665,41.715,12.282Z" transform="translate(-1105.795 -1675.863)"></path><path class="g" d="M779.374,1678.039a.868.868,0,0,1-.316-.135.816.816,0,0,1-.192-1.149v-.011a22.74,22.74,0,0,1,3.369-3.764.829.829,0,0,1,1.194,1.149.3.3,0,0,1-.09.079,21.505,21.505,0,0,0-3.133,3.5A.8.8,0,0,1,779.374,1678.039Z" transform="translate(-675.19 -1629.033)"></path></g><path class="a" d="M1363.6,1776.551l.541-5.251,17.669,16.136Z" transform="translate(-1208.172 -1588.001)"></path></g></svg>