<svg xmlns="http://www.w3.org/2000/svg" width="51.53" height="51.5" viewBox="0 0 51.53 51.5"><defs><style>.a{fill:none;stroke:#8c3562;stroke-width:1.5px}</style></defs><g transform="translate(0.75 0.75)"><g transform="translate(0 0)"><path class="a" d="M13.333,68.171V64.837A.833.833,0,0,0,12.5,64H.833A.833.833,0,0,0,0,64.837v3.333Zm0,0" transform="translate(0 -57.337)"></path><path class="a" d="M0,120v27.5H13.333V120Zm10,10.833H3.333A.833.833,0,0,1,2.5,130v-6.667a.833.833,0,0,1,.833-.833H10a.833.833,0,0,1,.833.833V130A.833.833,0,0,1,10,130.837Zm0,0" transform="translate(0 -107.504)"></path><path class="a" d="M0,432v4.167A.833.833,0,0,0,.833,437H12.5a.833.833,0,0,0,.833-.833V432Zm0,0" transform="translate(0 -387.004)"></path><path class="a" d="M0,400H13.333v1.667H0Zm0,0" transform="translate(0 -358.337)"></path><path class="a" d="M144,400h10.833v1.667H144Zm0,0" transform="translate(-129 -358.337)"></path><path class="a" d="M154.833,3.337V.837A.833.833,0,0,0,154,0h-9.167A.833.833,0,0,0,144,.837v2.5Zm0,0" transform="translate(-129 -0.004)"></path><path class="a" d="M144,88h10.833v30.833H144Zm0,0" transform="translate(-129 -78.837)"></path><path class="a" d="M144,432v4.167a.833.833,0,0,0,.833.833H154a.833.833,0,0,0,.833-.833V432Zm0,0" transform="translate(-129 -387.004)"></path><path class="a" d="M144,48h10.833v2.5H144Zm0,0" transform="translate(-129 -43.004)"></path><path class="a" d="M263.809,133.3l.446,1.712,14.113-3.763-.446-1.712Zm0,0" transform="translate(-236.329 -116.046)"></path><path class="a" d="M322.972,360.123l14.112-3.763-.894-3.426L322.078,356.7Zm0,0" transform="translate(-288.528 -316.17)"></path><path class="a" d="M291.024,179.786l-4.782-18.333-14.113,3.763,4.782,18.333Zm0,0" transform="translate(-243.782 -144.635)"></path><path class="a" d="M249.216,72.985l14.112-3.763-1.2-4.589a.852.852,0,0,0-1.025-.6l-12.5,3.333a.839.839,0,0,0-.592,1.016Zm0,0" transform="translate(-222.157 -57.34)"></path><path class="a" d="M348.809,401.3,334.7,405.064l.994,3.81a.836.836,0,0,0,.392.509.8.8,0,0,0,.417.116.967.967,0,0,0,.216-.025l12.5-3.333a.84.84,0,0,0,.592-1.017Zm0,0" transform="translate(-299.832 -359.499)"></path></g></g></svg>