<svg xmlns="http://www.w3.org/2000/svg" width="46.129" height="50" viewBox="0 0 46.129 50"><defs><style>.a{fill:#8c3562}.b,.c,.e{fill:none}.b,.c{stroke:#8c3562}.c{stroke-width:2px}.d{stroke:none}</style></defs><path class="a" d="M6.179,0H32.957a6.179,6.179,0,0,1,6.179,6.179v30.9a6.179,6.179,0,0,1-6.179,6.179c0-5.9-.374-22.1-.609-31.648-.076-3.1-.017-3.683-.825-4.534a3.1,3.1,0,0,0-1.942-.894H0A6.179,6.179,0,0,1,6.179,0Z" transform="translate(6.992)"></path><g class="b" transform="translate(0 9.355)"><rect class="d" width="36.774" height="40.645" rx="2"></rect><rect class="e" x="0.5" y="0.5" width="35.774" height="39.645" rx="1.5"></rect></g><g transform="translate(4.613 15.767)"><circle class="a" cx="3" cy="3" r="3"></circle><circle class="a" cx="3" cy="3" r="3" transform="translate(0 11)"></circle><circle class="a" cx="3" cy="3" r="3" transform="translate(0 21)"></circle><line class="c" x2="16.527" transform="translate(9.419 2.832)"></line><line class="c" x2="16.527" transform="translate(9.419 13.575)"></line><line class="c" x2="16.527" transform="translate(9.419 24.317)"></line></g></svg>